Coordinates
version=1
nRows=19
nColumns=36
inDegrees=yes

Units are S.I. units (second, meters, Newtons, ...)
If the header above contains a line with 'inDegrees', this indicates whether rotational values are in degrees (yes) or radians (no).

endheader
time	pelvis_tilt	pelvis_list	pelvis_rotation	pelvis_tx	pelvis_ty	pelvis_tz	hip_flexion_r	hip_adduction_r	hip_rotation_r	knee_angle_r	knee_angle_r_beta	ankle_angle_r	subtalar_angle_r	mtp_angle_r	hip_flexion_l	hip_adduction_l	hip_rotation_l	knee_angle_l	knee_angle_l_beta	ankle_angle_l	subtalar_angle_l	mtp_angle_l	lumbar_extension	lumbar_bending	lumbar_rotation	arm_flex_r	arm_add_r	arm_rot_r	elbow_flex_r	pro_sup_r	arm_flex_l	arm_add_l	arm_rot_l	elbow_flex_l	pro_sup_l
      3.40833330	    -22.83315754	      0.07959223	     -0.37838966	      0.08139931	      0.56717231	     -0.05700814	     89.93021922	     -9.16575783	      4.93680488	    103.98170809	      1.81482317	     38.97225931	      7.98459473	     -7.49999987	     92.81572462	     -8.18985399	      2.39834672	    104.33039977	      1.82090899	     32.67398705	     -2.81717597	     -7.49999987	    -31.13014199	      2.96733662	      0.07330014	     55.44775331	    -25.83273877	     16.11671948	     65.59124567	     85.76557201	     49.67983916	    -29.01807877	      5.81684838	     70.09400718	     71.05207541
      3.41250000	    -23.10789609	      0.12917457	     -0.29330440	      0.08206180	      0.56628357	     -0.06180586	     90.82296585	     -9.65235235	      5.15142475	    104.56893757	      1.82507226	     38.78530280	      8.35998812	     -7.49999987	     93.63961924	     -7.87394743	      2.30269775	    105.03131650	      1.83314229	     32.50585146	     -2.96163924	     -7.49999987	    -31.55360235	      3.13859400	     -0.07691975	     57.25349127	    -25.95942521	     15.94353139	     65.37132967	     85.69780190	     51.43016405	    -28.78338221	      5.90879856	     70.17902272	     70.82030238
      3.41666670	    -23.21560955	      0.39849815	     -0.22944105	      0.07982119	      0.56314163	     -0.06500733	     91.59216363	    -10.22778098	      5.71064908	    105.04344741	      1.83335401	     38.53883747	      9.22098857	     -7.49999987	     94.19137718	     -7.35537056	      2.02432573	    105.63184321	      1.84362346	     32.33381817	     -3.53073824	     -7.49999987	    -31.99973227	      3.15257288	     -0.07156147	     59.62368482	    -26.38543129	     17.15103192	     63.98758096	     84.64069778	     53.97350226	    -28.37807565	      7.57356563	     68.76591483	     69.30764562
      3.42083330	    -23.57722614	      0.51475543	     -0.30153727	      0.07785144	      0.55724531	     -0.06182233	     92.69537636	    -10.55984561	      5.88497540	    105.66600021	      1.84421961	     38.32402938	      9.52208676	     -7.49999987	     95.12606463	     -7.13745098	      2.13028847	    106.23079574	      1.85407715	     32.38713597	     -3.57196671	     -7.49999987	    -32.44024855	      3.15311602	     -0.07542354	     61.52839823	    -26.38220920	     16.90671656	     64.05210234	     84.60181870	     55.69583201	    -28.17961820	      7.53519695	     68.99636106	     69.20500192
      3.42500000	    -23.66394237	      0.82770272	     -0.36379221	      0.07872917	      0.55232132	     -0.06434509	     93.65494073	    -10.97597666	      6.33417155	    106.58280392	      1.86022085	     38.32451349	     10.53934715	     -7.49999987	     95.74172353	     -6.87249655	      2.04756812	    106.86929499	      1.86522107	     32.26426660	     -3.81225788	     -7.49999987	    -32.90254716	      2.94026890	      0.00558975	     63.58404898	    -26.71339980	     17.80188466	     63.32084785	     83.97782438	     57.70463310	    -27.81928968	      8.68219462	     68.40605197	     68.41112201
      3.42916670	    -23.74396007	      1.04789110	     -0.52313645	      0.07609321	      0.54788268	     -0.06294393	     94.58090672	    -11.12854513	      6.59818244	    107.34482570	      1.87352064	     38.27224157	     11.05532912	     -7.49999987	     96.48369890	     -7.00054003	      1.99038286	    107.60345661	      1.87803460	     32.15844226	     -3.93234974	     -7.49999987	    -33.51905973	      2.74438050	      0.14886280	     65.70504495	    -26.86735588	     18.41249610	     62.84388641	     83.85363088	     59.81106938	    -27.72405387	      9.56394304	     67.99112589	     67.82589585
      3.43333330	    -24.08997446	      1.20627793	     -0.70529594	      0.07778920	      0.54492381	     -0.06643944	     95.56333666	    -11.20407386	      6.92391061	    107.98179067	      1.88463778	     38.01786686	     11.24920635	     -7.49999987	     97.38470511	     -7.01578268	      1.90788481	    108.34439079	      1.89096635	     32.03302388	     -3.97612748	     -7.49999987	    -33.88316077	      2.76256730	      0.25349338	     67.29088395	    -26.78473589	     18.22054043	     62.92924048	     83.80985469	     61.12548493	    -27.53268583	      9.48329221	     68.10157139	     67.71249900
      3.43750000	    -24.19003317	      1.61148094	     -0.74133966	      0.07747520	      0.54212745	     -0.06481510	     96.29430176	    -11.37981004	      7.42805769	    108.58095402	      1.89509515	     37.74748094	     11.80139621	     -7.49999987	     97.87957381	     -6.95887265	      1.67561899	    108.89284155	      1.90053862	     31.70630588	     -4.29730133	     -7.49999987	    -34.49008823	      2.38173652	      0.29937687	     69.03562858	    -27.08624217	     18.86805859	     62.39622322	     83.25173319	     63.07383954	    -27.21560819	     10.25543238	     67.50772100	     66.88146841
      3.44166670	    -24.35613476	      1.71746627	     -0.77415170	      0.08180769	      0.53674251	     -0.06521905	     96.95708024	    -11.51339153	      7.63622067	    109.42876195	      1.90989219	     37.64325520	     11.87562208	     -7.49999987	     98.58407162	     -6.97269616	      1.76584143	    109.81650077	      1.91665951	     31.66153442	     -4.34566231	     -7.49999987	    -34.77674767	      2.42050074	      0.33373218	     70.05094446	    -26.96719061	     18.69823839	     62.52631337	     83.23117986	     63.88511274	    -27.00822756	     10.19645180	     67.64837304	     66.84160850
      3.44583330	    -24.64417700	      1.92659931	     -0.79190564	      0.08002241	      0.53002091	     -0.06342878	     97.99453401	    -11.67624409	      7.90688202	    110.36257681	      1.92619034	     37.53137089	     12.70222760	     -7.49999987	     99.49220399	     -7.00929403	      1.74893325	    110.72786511	      1.93256582	     31.61775355	     -4.32863593	     -7.49999987	    -35.08485727	      2.21120385	      0.49830237	     71.54414111	    -27.28778686	     19.08734388	     62.31032441	     82.72642357	     65.49331222	    -26.80008833	     10.65580803	     67.38140989	     66.11394436
      3.45000000	    -24.75305695	      1.88028023	     -0.68551684	      0.07443944	      0.52268451	     -0.05438192	     99.04540520	    -11.47741010	      7.76116452	    111.53921907	      1.94672662	     37.46626127	     12.72675194	     -7.49999987	    100.59624185	     -7.36793235	      2.24238971	    111.67818782	      1.94915208	     31.35653643	     -4.15295394	     -7.49999987	    -35.47422501	      1.94147702	      0.47061337	     72.58479284	    -27.05335192	     18.95953588	     62.52384309	     82.69298692	     67.04553820	    -26.84628858	     10.50258476	     67.53282387	     66.02440976
      3.45416670	    -24.77468359	      1.85115721	     -0.48931151	      0.07748331	      0.51969835	     -0.05141696	     99.89697254	    -11.27072195	      7.61972806	    112.76621173	      1.96814168	     37.45879901	     12.58346820	     -7.49999987	    101.48518628	     -7.74026458	      2.79662049	    112.58813860	      1.96503372	     30.90195426	     -3.92519856	     -7.49999987	    -35.81831677	      1.70723644	      0.35611567	     73.25516423	    -26.76336744	     18.87822089	     62.70190108	     82.67316824	     68.22764474	    -26.79588313	     10.44012928	     67.66288533	     65.97736324
      3.45833330	    -25.02512147	      1.79111901	     -0.34693549	      0.08433380	      0.51707751	     -0.05159719	    100.55031136	    -10.91276283	      7.44617934	    113.75542350	      1.98540668	     37.21435932	     11.91103057	     -7.49999987	    102.23621117	     -8.27131770	      3.24662718	    113.24389216	      1.97647878	     30.33117947	     -3.16175574	     -7.49999987	    -35.92777950	      1.20824603	      0.83069770	     72.98000080	    -27.19856919	     17.48979344	     63.67304734	     82.03118511	     70.53774478	    -26.55854964	     13.09241560	     66.63433161	     63.80690815
      3.46250000	    -25.26821594	      1.71965470	     -0.08845023	      0.08575687	      0.51297670	     -0.05193944	    101.05604819	    -10.97353911	      7.47390357	    114.55022710	      1.99927862	     37.10804716	     11.66424967	     -7.49999987	    102.87079085	     -8.42153833	      3.46246980	    113.87372682	      1.98747146	     30.08589689	     -2.93487396	     -7.49999987	    -36.03467167	      1.13698504	      0.65337609	     73.43303480	    -27.05529508	     17.26550275	     63.86775182	     81.46626423	     71.42726964	    -26.37440761	     12.95118084	     66.98752614	     63.61972759
      3.46666670	    -25.60566698	      1.63365512	      0.06438092	      0.08733820	      0.50752931	     -0.05137137	    101.78730246	    -11.09801387	      7.54639282	    115.43030256	      2.01463884	     37.13643460	     11.73381820	     -7.49999987	    103.76133947	     -8.51946681	      3.73897827	    114.67317272	      2.00142443	     30.21346075	     -2.13094380	     -7.49999987	    -35.91954569	      1.02074939	      0.62910807	     73.66384862	    -26.94830240	     16.74757690	     63.82799133	     79.78802852	     72.10518471	    -26.09968126	     13.20571029	     67.40664711	     63.06892941
      3.47083330	    -25.80230475	      1.49353172	      0.26725887	      0.08871048	      0.50104315	     -0.04880805	    102.43550623	    -11.14234798	      7.68199483	    116.53607908	      2.03393828	     37.31198675	     11.43088210	     -7.49999987	    104.63135335	     -8.58286785	      4.12847232	    115.52471279	      2.01628661	     30.35111091	     -1.66676250	     -7.49999987	    -35.93962263	      0.98870338	      0.69041906	     73.80978788	    -26.85316472	     15.83295027	     63.87281447	     80.82844603	     73.01002030	    -25.91863662	     14.05669075	     67.43567464	     61.68717612
      3.47500000	    -25.83709439	      1.39532844	      0.36804692	      0.08888394	      0.49628913	     -0.04979083	    102.93676281	    -11.15923279	      7.90780152	    117.49810437	      2.05072879	     37.68183960	     11.26487072	     -7.49999987	    105.33180129	     -8.55302154	      4.43618855	    116.39774773	      2.03152394	     30.44840093	     -1.78840146	     -7.49999987	    -36.13574036	      1.01658526	      0.59602394	     74.12702623	    -26.75063861	     15.70172801	     64.06069435	     80.47873970	     73.40790906	    -25.75770044	     13.97247167	     67.66295272	     61.64328624
      3.47916670	    -26.12475120	      1.09219004	      0.55831322	      0.09369343	      0.49047669	     -0.04984259	    103.71003941	    -11.38233974	      8.00954781	    118.64990706	      2.07083154	     37.79624312	     11.58006462	     -7.49999987	    106.36092866	     -8.55480227	      4.96786101	    117.37814487	      2.04863510	     30.57894618	     -1.02076429	     -7.49999987	    -36.00447376	      1.24918711	      0.56956961	     74.38228988	    -26.68687160	     15.41372469	     63.89310902	     80.48566042	     73.86850122	    -25.57502274	     14.13193644	     68.12425058	     61.65651626
      3.48333330	    -26.00385727	      0.90791002	      0.68439915	      0.09083723	      0.48172660	     -0.04845622	    104.41104316	    -11.41084885	      8.30925444	    119.87851014	      2.09227470	     37.91557048	     11.50105849	     -7.49999987	    107.15168429	     -8.60552652	      5.31636076	    118.51418627	      2.06846276	     30.77979041	     -1.05537325	     -7.49999987	    -36.14187921	      1.35769535	      0.48501416	     74.69633803	    -26.56165760	     15.32069627	     63.91451361	     80.50723206	     74.30052395	    -25.36998199	     14.14487478	     68.30849693	     61.66436833
